<?xml version="1.0" encoding="UTF-8"?> <svg xmlns="http://www.w3.org/2000/svg" viewBox="0 0 399.237 187.57396"> <path d="M114.24848,168.68981c-.98317,0-1.88692-.07951-2.87314-.07951-1.88691,0-2.13414-.49454-2.13414-2.05176.08247-3.52957.16494-7.22686.16494-10.59157,0-9.60545-1.313-22.24888-2.464-27.25615a1.84609,1.84609,0,0,0-1.72215-1.313c-2.979-.315-8.79872-.69766-14.53313-.733v-.00584c-.15021,0-.29143.00288-.44163.00288-.12649,0-.25316-.00288-.37965-.00288-.07367,0-.14733.00584-.21794.00584-5.58421.02057-10.73289.17958-15.13665.48871-.574,0-.90375.574-.739,1.47475l1.06563,7.14447a1.14131,1.14131,0,0,0,1.48068,1.06564,45.19218,45.19218,0,0,1,4.78071-.9449,65.0517,65.0517,0,0,0-3.87983,8.99016c-1.96939,5.9935-2.461,13.79144-2.13127,20.85354.07941,2.461-.16494,2.79066-1.8075,2.873-.90375.07951-1.8075.07951-2.62878.07951-.57406,0-1.2304.41217-1.31287,1.64553A136.30138,136.30138,0,0,0,70.325,186.261a1.38427,1.38427,0,0,0,1.47762,1.313h7.79813a1.06334,1.06334,0,0,0,1.151-1.313,59.99536,59.99536,0,0,1-.98622-8.21011c0-.65347.24723-1.148.98622-1.148,7.22389-.3297,14.44778-.3297,21.7572-.08535,2.21661,0,2.87313.24723,2.71107,1.72791-.16764,1.23048-.57387,4.76005-1.06851,7.38586-.08247.57406.24435,1.64265,1.1481,1.64265h7.63606a1.52156,1.52156,0,0,0,1.4778-1.313,96.76988,96.76988,0,0,0,1.31574-16.25537,1.30314,1.30314,0,0,0-1.48067-1.31583M99.471,164.91589c-.16494,2.38155-.24741,3.52957-2.21679,3.52957-3.20265,0-6.40549-.08238-9.60544,0-2.46385,0-2.62879-1.148-2.79067-3.612-.6594-7.05913-.82416-12.88769.40929-16.99428a34.87741,34.87741,0,0,1,4.26847-10.097c1.47762-2.21662,2.38137-2.46393,4.1064-2.46393a21.98924,21.98924,0,0,1,3.52966.16484,2.27663,2.27663,0,0,1,1.47762,1.39534c.82146,2.79066,1.14811,11.73968,1.14811,18.71634,0,3.45006-.07942,6.488-.32665,9.36109" style="fill:#6a463d"></path> <path d="M98.40482,65.28723c.07941.65652.574.98326,1.31286.7389a32.28458,32.28458,0,0,1,3.62381-1.0332,141.71321,141.71321,0,0,0-1.65442,19.34034c0,6.56755.08247,14.61281.90375,19.78494a1.20563,1.20563,0,0,0,1.31592,1.14811h7.9627c.82128,0,1.23345-.49168,1.06869-1.23049a95.27624,95.27624,0,0,1-1.34539-10.86539.05092.05092,0,0,0,.02947-.053c0-2.46393.73881-3.20274,2.87313-3.61194,10.09991-1.96939,20.9388-8.7017,20.9388-21.01839,0-9.35813-6.3232-13.62659-16.99715-13.62659-.68006,0-1.33353.0088-1.96939.0265v-.0265a112.76539,112.76539,0,0,0-18.22772,1.56018c-.571.08247-.82415.574-.73881,1.47484Zm27.34158,3.8563c0,6.24082-5.25468,11.66026-11.82511,12.23423-1.13337.0795-2.5817-.00584-2.54343-1.90165.22081-6.09358.82128-12.61684,1.4778-14.84827A2.43458,2.43458,0,0,1,114.251,63.315a9.80556,9.80556,0,0,1,3.61195-.4092c5.25468,0,7.88346,2.21661,7.88346,6.23776" style="fill:#6a463d"></path> <path d="M81.16278,76.1228c.16476,1.64265.16476,4.68064.16476,6.48508a134.82808,134.82808,0,0,1-2.1372,21.18324,1.17641,1.17641,0,0,0,1.23345,1.47484h7.96288a1.48909,1.48909,0,0,0,1.56009-1.47484c.574-4.27134.65652-13.29986.65652-22.90531,0-6.56746-.40911-20.03216-1.06851-24.54786a1.16288,1.16288,0,0,0-1.313-1.15107H80.66814c-.82128,0-1.31286.74187-1.4778,1.56027-1.722,8.70457-8.45447,25.45162-15.51648,34.72736a.84428.84428,0,0,1-1.56009-.24731c-.24741-2.13424-.08247-4.76-.08247-11.73968A159.79952,159.79952,0,0,1,64.24792,56.338c.08247-.65643-.16189-1.15107-.98317-1.15107H55.38128A1.16282,1.16282,0,0,0,54.06842,56.338a245.77811,245.77811,0,0,0-1.64256,27.995,181.88549,181.88549,0,0,0,.73881,19.62009,1.34532,1.34532,0,0,0,1.313,1.313h7.71835c.90088,0,1.23058-.65653,1.725-1.313C68.51926,97.38554,76.23491,84.16806,79.52,75.958c.32682-.90078,1.55721-.90078,1.64274.16485" style="fill:#6a463d"></path> <path d="M371.814,48.781c4.26829.7389,9.523.41216,12.72581-1.06564a19.18025,19.18025,0,0,0,7.55359-6.81469,1.377,1.377,0,0,0,0-1.8075l-3.77688-4.68054a.89008.89008,0,0,0-1.5601.32969,9.90773,9.90773,0,0,1-4.84539,5.82865c-2.62591,1.31583-5.82874,0-8.86663-1.313a.84212.84212,0,0,0-1.2304.7389l-1.06869,7.38874A1.236,1.236,0,0,0,371.814,48.781" style="fill:#6a463d"></path> <path d="M186.00929,105.2656h7.9627c.82434,0,1.2365-.49159,1.06869-1.23049-1.1481-6.24072-1.63969,5.287-1.63969-20.11455a158.729,158.729,0,0,1,.98317-18.634,1.96034,1.96034,0,0,1,1.23345-1.39533,12.652,12.652,0,0,1,4.59511-.57693c2.62878,0,7.14448.82128,8.86951,1.88692a1.30175,1.30175,0,0,0,1.89-.65347l1.55721-7.63615c.16476-.90366-.07941-1.39533-.98316-1.47771a81.03341,81.03341,0,0,0-9.85285-.41217,137.66337,137.66337,0,0,0-14.124.7389,1.84261,1.84261,0,0,0-1.72216,1.31583c-.986,5.00737-2.05472,17.65071-2.05472,27.25615,0,6.56459.08246,14.61281.90375,19.78494a1.2051,1.2051,0,0,0,1.313,1.148" style="fill:#6a463d"></path> <path d="M38.38485,55.76354a145.39415,145.39415,0,0,0-14.53331-.73881c-2.38155,0-4.6659.06477-6.756.16485-5.95218.0088-13.32034.25019-16.31422.49158-.574.08238-.90375.574-.73881,1.4778l1.06563,7.14151A1.14034,1.14034,0,0,0,2.5888,65.369a38.33756,38.33756,0,0,1,3.81516-.7742A178.08965,178.08965,0,0,0,5.13224,84.33264c0,6.56746.08247,14.61273.90375,19.78494a1.20634,1.20634,0,0,0,1.31574,1.151h7.96288c.82128,0,1.23057-.49158,1.06563-1.23345a107.89979,107.89979,0,0,1-1.63968-20.11167c0-6.97963.32682-15.92568,1.1481-18.71931a2.35455,2.35455,0,0,1,1.56009-1.31286,40.23434,40.23434,0,0,1,6.40279-.574,40.238,40.238,0,0,1,6.40549.574,2.35534,2.35534,0,0,1,1.56027,1.31286c.82128,2.79363,1.14811,11.73968,1.14811,18.71931a107.91507,107.91507,0,0,1-1.63969,20.11167c-.16781.7389.24435,1.23345,1.06851,1.23345l7.95983-.003a1.204,1.204,0,0,0,1.31591-1.148c.82129-5.17221.90375-13.21748.90375-19.78494,0-9.60544-1.31591-22.24887-2.46384-27.25615a1.85,1.85,0,0,0-1.725-1.313" style="fill:#6a463d"></path> <path d="M158.25877,106.49761c10.67108.32673,19.12842-7.63319,19.12842-22.49323,0-14.03867-5.9935-29.39029-19.12842-29.39029-13.138,0-19.1286,15.35162-19.1286,29.39029,0,14.86,8.372,22.82,19.1286,22.49323m0-43.10241c6.64984,0,8.94892,10.01761,8.94892,20.936,0,10.01456-3.85935,13.79145-8.94892,13.79145-5.08975,0-9.03157-3.77392-9.03157-13.79145,0-10.91839,2.29621-20.933,9.03157-20.936" style="fill:#6a463d"></path> <path d="M287.65656,78.41784c-.40911-.32386-.65347-.97436.15308-1.87227a12.51677,12.51677,0,0,0,4.607-9.53771c0-8.53684-6.32014-12.14888-16.17281-12.14888a58.68063,58.68063,0,0,0-12.72887,1.23057c-1.06563.24723-1.80444.65643-1.96938,1.64256a159.572,159.572,0,0,0-2.873,26.59972c0,6.56746.08229,14.61273.9007,19.78485a1.20719,1.20719,0,0,0,1.31592,1.14811h.82128c3.61194.24723,9.35821.24723,14.2859.24723,12.89074,0,18.7193-6.56746,18.7193-14.86,0-7.38884-6.64984-11.90453-7.05913-12.23423M271.3984,63.72265a12.91489,12.91489,0,0,1,4.26829-.65356c4.59817,0,7.06219,1.23048,7.06219,5.25172,0,3.7768-6.24073,6.97954-11.82224,7.88329-1.151.162-2.46384-.16485-2.21949-1.88988.00593-.02354-.02946-.02354-.04114-.03827a56.81865,56.81865,0,0,1,1.195-9.24044,2.56382,2.56382,0,0,1,1.55739-1.31286m10.5092,32.18392c-1.8075,1.06573-4.925,1.313-6.81478,1.313-3.56793,0-6.08477-.88606-6.4646-3.27938-.12056-1.60132-.209-3.24694-.26789-4.95427.0088-2.44336.66532-3.42653,3.44719-4.40682,1.784-.61232,3.63548-1.27172,5.46652-2.00469a3.41,3.41,0,0,1,2.74646.60639c1.14811.65653,4.5157,3.77689,4.5157,7.88338a5.361,5.361,0,0,1-2.6286,4.84243" style="fill:#6a463d"></path> <path d="M324.18316,146.75123c4.8718-4.74532,8.7105-10.70638,8.7105-18.70161,0-.81831-.4093-1.22752-1.14811-1.22752h-7.4713a1.07171,1.07171,0,0,0-1.14792,1.14811c-.65652,11.16562-7.14448,17.07369-12.39917,19.70247a1.33711,1.33711,0,0,1-2.02526-.93609c.4181-7.36233,1.24225-14.43907,1.94279-18.76638.08247-.6594-.16476-1.14811-.98316-1.14811h-7.88329a1.16046,1.16046,0,0,0-1.31286,1.14811,245.735,245.735,0,0,0-1.64274,27.995,181.07,181.07,0,0,0,.739,19.62009,1.34514,1.34514,0,0,0,1.31286,1.313h7.88329c.98334,0,1.313-.57108,1.23057-1.313a113.73707,113.73707,0,0,1-1.47187-15.00135c-.03827-2.01943,2.05185-3.47064,2.45791-3.715.62131-.4357,1.27477-.88605,1.9401-1.34529.07349.056.14122.0707.19423.02946a2.55646,2.55646,0,0,1,2.95542-.574c3.03807,1.80454,7.38883,10.59157,8.12782,20.44137.08229,1.0686.6594,1.4778,1.31287,1.4778h8.12764c.65652,0,1.06869-.82137.98909-1.56018-1.97226-14.20064-6.57042-21.67185-9.85555-25.44874-.77133-.85075-1.522-1.92222-.58285-3.13806" style="fill:#6a463d"></path> <path d="M327.72288,77.26974c-4.68064-2.13424-9.93515-2.873-12.80828-3.61195a3.02885,3.02885,0,0,1-2.20494-2.72886,140.25728,140.25728,0,0,1,1.62783-14.0181c.08553-.577.49464-1.725-.90069-1.725h-7.63319c-.98909,0-1.48068.40912-1.64543,1.56018-.81841,5.00728-1.56028,17.97744-1.56028,27.58585,0,6.5645.08247,14.61273.90375,19.78485a1.20306,1.20306,0,0,0,1.31287,1.14811h.82128c3.61212.24723,10.01474.24723,14.9426.24723,11.49523,0,16.66745-6.65281,16.66745-14.94242,0-6.56746-3.77688-10.674-9.523-13.29986m-3.12037,18.63683a9.74109,9.74109,0,0,1-5.33715,1.313c-3.39994,0-6.385-.80952-6.78532-4.36855-.17356-2.64639-.262-5.42232-.27076-8.4073.02353-2.567,1.725-2.41093,2.54038-2.33142,8.375.82128,12.48145,3.61194,12.48145,8.62218a5.95653,5.95653,0,0,1-2.6286,5.17213" style="fill:#6a463d"></path> <path d="M398.16849,56.33463a1.16735,1.16735,0,0,0-1.313-1.151h-7.55359c-.82128,0-1.31287.7389-1.48068,1.56018-1.72216,8.70466-8.45447,25.45161-15.51647,34.72736a.84588.84588,0,0,1-1.56027-.24426c-.24723-2.13424-.07942-4.763-.07942-11.74265a159.79816,159.79816,0,0,1,2.21374-23.14965c.08229-.65644-.16207-1.151-.98335-1.151h-7.88328a1.16437,1.16437,0,0,0-1.31287,1.151,246.3997,246.3997,0,0,0-1.64274,27.99505,181.92562,181.92562,0,0,0,.739,19.62305,1.34865,1.34865,0,0,0,1.31287,1.3099h7.71852c.90376,0,1.23345-.65643,1.725-1.3099,4.59816-6.57051,12.31669-19.7879,15.59894-27.998.3297-.90079,1.56009-.90079,1.64543.16485.16207,1.64265.16207,4.68054.16207,6.48508a134.82911,134.82911,0,0,1-2.1372,21.18323,1.17743,1.17743,0,0,0,1.23345,1.47475h7.9627a1.49145,1.49145,0,0,0,1.56315-1.47475c.574-4.27143.65652-13.30282.65652-22.90826,0-6.56459-.41217-20.02921-1.06851-24.545" style="fill:#6a463d"></path> <path d="M151.60875,150.05414c-.40911-.32386-.65347-.97733.15308-1.87227a12.51677,12.51677,0,0,0,4.607-9.53771c0-8.53684-6.323-12.14888-16.17281-12.14888a58.6982,58.6982,0,0,0-12.72887,1.23057c-1.06851.24427-1.80444.65643-1.96938,1.64256a159.91782,159.91782,0,0,0-2.873,26.59972c0,6.56746.08229,14.61273.90357,19.78485a1.20265,1.20265,0,0,0,1.31592,1.14811h.81841c3.61194.24723,9.35821.24723,14.2859.24723,12.88787,0,18.7193-6.56746,18.7193-14.86,0-7.38883-6.64984-11.90453-7.05913-12.23423M135.35059,135.359a12.91519,12.91519,0,0,1,4.26829-.65643c4.59816,0,7.06219,1.23336,7.06219,5.25459,0,3.7768-6.24073,6.97667-11.82224,7.88329-1.151.162-2.46384-.16485-2.21661-1.88988.00305-.02353-.03235-.02353-.044-.03827a56.82008,56.82008,0,0,1,1.195-9.24044,2.5906,2.5906,0,0,1,1.5574-1.31286m10.5092,32.18392c-1.80463,1.06573-4.92787,1.313-6.81478,1.313-3.56488,0-6.08478-.88606-6.46155-3.27938-.12361-1.60725-.212-3.26158-.27094-4.97484.0088-2.42863.67718-3.40892,3.44718-4.38921,1.78684-.60936,3.63549-1.26876,5.46652-2.00173a3.41,3.41,0,0,1,2.74647.6064c1.1481.65652,4.5157,3.77688,4.5157,7.88041a5.36817,5.36817,0,0,1-2.6286,4.84539" style="fill:#6a463d"></path> <path d="M348.9062,55.18454h-7.71853c-.82128,0-1.23057.65653-1.06563,1.56028,1.47475,7.062,1.88692,17.40635,1.88692,25.86073a134.41532,134.41532,0,0,1-2.13433,21.18027,1.176,1.176,0,0,0,1.23057,1.4778H349.071a1.4898,1.4898,0,0,0,1.56027-1.4778c.57388-4.26838.65635-13.29986.65635-22.90234,0-6.57043-.41217-20.03513-1.06851-24.54787a1.16424,1.16424,0,0,0-1.31287-1.15107" style="fill:#6a463d"></path> <path d="M227.88292,126.49267c-.68311,0-1.33352.01177-1.96938.02947v-.02947a112.76391,112.76391,0,0,0-18.22772,1.56019c-.57406.08247-.82434.574-.73882,1.4778l.90357,7.38883c.0796.65643.57406.98613,1.31305.73881a32.90069,32.90069,0,0,1,3.62075-1.03024,142.1644,142.1644,0,0,0-1.65137,19.33747c0,6.57042.08229,14.61272.90357,19.78781a1.20607,1.20607,0,0,0,1.31592,1.14811h7.96288c.82128,0,1.2304-.49455,1.06851-1.23345a95.258,95.258,0,0,1-1.34826-10.86243.0557.0557,0,0,0,.03252-.056c0-2.461.74169-3.20274,2.873-3.61194,10.09721-1.96939,20.93592-8.7017,20.93592-21.01839,0-9.35813-6.32014-13.6266-16.9941-13.6266m-4.51569,26.51725c-1.13337.08247-2.58171-.00583-2.54344-1.90164.21776-6.09349.82128-12.61684,1.47475-14.84531a2.43353,2.43353,0,0,1,1.39839-1.31287,9.73547,9.73547,0,0,1,3.61194-.41216c5.25451,0,7.88042,2.2167,7.88042,6.24072,0,6.23786-5.25469,11.6573-11.82206,12.23126" style="fill:#6a463d"></path> <path d="M286.50612,126.82094h-7.55377c-.82128,0-1.31286.7389-1.4778,1.56027-1.722,8.70169-8.45734,25.44865-15.51935,34.72736a.84341.84341,0,0,1-1.55722-.24732c-.24722-2.13423-.08247-4.763-.08247-11.73968a159.3985,159.3985,0,0,1,2.21662-23.15253c.08247-.65643-.16476-1.1481-.986-1.1481h-7.88347a1.16422,1.16422,0,0,0-1.31286,1.15106,246.4156,246.4156,0,0,0-1.63969,27.99209,181.12946,181.12946,0,0,0,.73881,19.623,1.34686,1.34686,0,0,0,1.31,1.313h7.71853c.90375,0,1.23345-.65652,1.72808-1.313,4.59512-6.56746,12.31364-19.78494,15.59877-27.995.32682-.90375,1.56027-.90375,1.63968.16484.16494,1.6396.16494,4.67759.16494,6.485a134.79061,134.79061,0,0,1-2.13432,21.18027,1.176,1.176,0,0,0,1.23057,1.4778h7.96576a1.49159,1.49159,0,0,0,1.56027-1.4778c.57387-4.26838.65634-13.29986.65634-22.90531,0-6.56746-.41216-20.0292-1.06851-24.54786a1.16369,1.16369,0,0,0-1.31286-1.1481" style="fill:#6a463d"></path> <path d="M183.79375,126.24985c-13.138,0-19.13147,15.34875-19.13147,29.38742,0,14.86,8.37487,22.82292,19.13147,22.4961,10.67108.32682,19.12842-7.63606,19.12842-22.4961,0-14.03867-5.9935-29.3903-19.12842-29.38742m0,43.50856c-5.0928,0-9.03444-3.7768-9.03444-13.79144,0-10.92128,2.302-20.93592,9.03444-20.93592,6.64984,0,8.94893,10.01464,8.94893,20.93592,0,10.01464-3.85936,13.79144-8.94893,13.79144" style="fill:#6a463d"></path> <path d="M232.56374,54.612c-13.138,0-19.1286,15.35162-19.1286,29.3903,0,14.86,8.37505,22.82292,19.1286,22.49322,10.67108.3297,19.13129-7.63318,19.13129-22.49322,0-14.03868-5.99637-29.3903-19.13129-29.3903m0,43.51144c-5.08975,0-9.03157-3.7768-9.03157-13.79145,0-10.92127,2.29908-20.93592,9.03157-20.93592,6.64984,0,8.94892,10.01465,8.94892,20.933,0,10.01752-3.85935,13.79432-8.94892,13.79432" style="fill:#6a463d"></path> <path d="M97.987,15.19172v5.91992H94.30143V6.075H97.987v5.79325H99.768a1.92642,1.92642,0,0,0,1.3452-.44451,5.15366,5.15366,0,0,0,.97149-1.26282l2.349-4.08592h3.84462l-2.73173,4.80128a7.27613,7.27613,0,0,1-1.17757,1.57779,3.78147,3.78147,0,0,1-1.46.91849,3.40315,3.40315,0,0,1,1.51015.87132A8.90381,8.90381,0,0,1,105.67305,15.91l3.1439,5.2016h-4.22427L101.92563,16.646a4.48875,4.48875,0,0,0-.84194-1.0421,2.01993,2.01993,0,0,0-1.3806-.41216Z" style="fill:#6a463d"></path> <path d="M124.09428,21.10984H120.6l-.09415-1.39237a5.164,5.164,0,0,1-1.8429,1.29822,6.38569,6.38569,0,0,1-2.69939.57109,6.00407,6.00407,0,0,1-2.42863-.524,4.7958,4.7958,0,0,1-1.987-1.61319,4.64434,4.64434,0,0,1-.79487-2.80243,4.71582,4.71582,0,0,1,1.79582-3.95638,7.64839,7.64839,0,0,1,4.81288-1.39237c.25316,0,.55932.00584.92154.01465.359.01186.70647.02946,1.045.04716l1.17757.06477v-.34739a2.06123,2.06123,0,0,0-.87447-1.77211,4.1881,4.1881,0,0,0-2.4933-.63289,6.0118,6.0118,0,0,0-2.36682.41208,11.1142,11.1142,0,0,0-1.69844.88308l-1.71623-2.53158A10.317,10.317,0,0,1,113.7087,6.188a10.00185,10.00185,0,0,1,3.74742-.61816,7.04477,7.04477,0,0,1,4.98661,1.55138,5.1137,5.1137,0,0,1,1.65155,3.8916Zm-3.58841-5.2546V14.24215l-1.11289-.06181c-.2943-.02066-.60334-.03827-.92136-.05013-.31784-.0088-.58285-.01464-.79487-.01464a4.79065,4.79065,0,0,0-2.2989.55339,1.93232,1.93232,0,0,0-1.03635,1.85161,1.9124,1.9124,0,0,0,.68293,1.569,2.88357,2.88357,0,0,0,1.86051.55348,4.07236,4.07236,0,0,0,2.55817-.82425,2.431,2.431,0,0,0,1.06276-1.96355" style="fill:#6a463d"></path> <path d="M139.40107,27.43861h-3.33543V21.45993a10.96,10.96,0,0,1-4.62152-1.25114,7.2383,7.2383,0,0,1-2.84079-2.73767,7.36535,7.36535,0,0,1-.95083-3.70321,7.45519,7.45519,0,0,1,.9979-3.8298,7.63268,7.63268,0,0,1,2.89074-2.78483,10.28141,10.28141,0,0,1,4.5245-1.23632V0h3.33543V5.917a10.78891,10.78891,0,0,1,4.60679,1.251,7.40925,7.40925,0,0,1,2.8408,2.72293,7.22414,7.22414,0,0,1,.97148,3.718,7.38315,7.38315,0,0,1-3.877,6.59989,10.70008,10.70008,0,0,1-4.54211,1.25114Zm-3.33543-8.98719V8.893a5.3805,5.3805,0,0,0-3.69729,1.56612,4.75339,4.75339,0,0,0-1.12744,3.21163,4.75058,4.75058,0,0,0,1.12744,3.21451,5.35455,5.35455,0,0,0,3.69729,1.56612m3.33543-9.526v9.55837a5.37777,5.37777,0,0,0,3.70322-1.569,4.7726,4.7726,0,0,0,1.12744-3.21164,4.778,4.778,0,0,0-1.12744-3.21163,5.38962,5.38962,0,0,0-3.70322-1.56611" style="fill:#6a463d"></path> <path d="M165.63606,14.18025V14.716H154.42327a4.61673,4.61673,0,0,0,1.31879,2.65816,4.28405,4.28405,0,0,0,3.12917,1.04506,5.97,5.97,0,0,0,2.938-.64762,8.09309,8.09309,0,0,0,1.6043-1.09214l2.03119,2.27842q-.25173.25617-1.048.90079a8.37322,8.37322,0,0,1-2.16073,1.204,9.10458,9.10458,0,0,1-3.39706.55348,8.60075,8.60075,0,0,1-4.31842-1.02737,7.05075,7.05075,0,0,1-2.79659-2.8672,8.719,8.719,0,0,1-.98317-4.1772,8.62406,8.62406,0,0,1,.96843-4.16246,7.11672,7.11672,0,0,1,2.6994-2.79947,7.82075,7.82075,0,0,1,4.01818-1.01272,7.005,7.005,0,0,1,3.35.74187A6.29452,6.29452,0,0,1,164.017,8.30749a8.57352,8.57352,0,0,1,1.2392,2.77,12.73862,12.73862,0,0,1,.37983,3.10275m-7.40051-5.47838a3.79146,3.79146,0,0,0-2.06371.50641,3.32789,3.32789,0,0,0-1.19213,1.26579,5.118,5.118,0,0,0-.5241,1.55138h7.33583a4.18475,4.18475,0,0,0-.93609-2.34032,3.21045,3.21045,0,0,0-2.6198-.98326" style="fill:#6a463d"></path> <rect x="169.47942" y="10.50668" width="9.68486" height="3.5443" style="fill:#6a463d"></rect> <polygon points="183.802 6.075 197.552 6.075 197.552 21.112 193.808 21.112 193.808 9.399 187.549 9.399 187.549 21.112 183.802 21.112 183.802 6.075" style="fill:#6a463d"></polygon> <path d="M216.07124,14.18025V14.716H204.85845a4.61668,4.61668,0,0,0,1.3188,2.65816,4.284,4.284,0,0,0,3.12916,1.04506,5.9625,5.9625,0,0,0,2.938-.64762,8.005,8.005,0,0,0,1.60429-1.09214l2.03119,2.27842q-.25171.25617-1.048.90079a8.4014,8.4014,0,0,1-2.15768,1.204,9.1327,9.1327,0,0,1-3.40012.55348,8.60068,8.60068,0,0,1-4.31841-1.02737,7.06876,7.06876,0,0,1-2.7966-2.8672,8.68406,8.68406,0,0,1-.98316-4.1772,8.62406,8.62406,0,0,1,.96843-4.16246,7.11669,7.11669,0,0,1,2.69939-2.79947,7.82078,7.82078,0,0,1,4.01818-1.01272,7.005,7.005,0,0,1,3.35.74187,6.29461,6.29461,0,0,1,2.24033,1.99588,8.56785,8.56785,0,0,1,1.23632,2.77,12.60211,12.60211,0,0,1,.3827,3.10275m-7.40051-5.47838a3.79149,3.79149,0,0,0-2.06371.50641,3.32787,3.32787,0,0,0-1.19212,1.26579,5.118,5.118,0,0,0-.52411,1.55138h7.33583a4.18468,4.18468,0,0,0-.93609-2.34032,3.21045,3.21045,0,0,0-2.6198-.98326" style="fill:#6a463d"></path> <path d="M223.28022,15.19172v5.91992h-3.68273V6.075h3.68273v5.79325h1.77786a1.9245,1.9245,0,0,0,1.34826-.44451,5.08193,5.08193,0,0,0,.96861-1.26282l2.3519-4.08592h3.84463l-2.73174,4.80128a7.26368,7.26368,0,0,1-1.17469,1.57779,3.84608,3.84608,0,0,1-1.46.91849,3.40907,3.40907,0,0,1,1.50727.87132A8.90294,8.90294,0,0,1,230.96623,15.91l3.1439,5.2016h-4.22427L227.21881,16.646a4.48875,4.48875,0,0,0-.84194-1.0421,2.02306,2.02306,0,0,0-1.38347-.41216Z" style="fill:#6a463d"></path> <path d="M249.38872,21.10984h-3.49426l-.097-1.39237a5.151,5.151,0,0,1-1.83985,1.29822,6.39652,6.39652,0,0,1-2.69957.57109,6.01733,6.01733,0,0,1-2.4315-.524,4.80705,4.80705,0,0,1-1.98412-1.61319,4.64429,4.64429,0,0,1-.79469-2.80243,4.71358,4.71358,0,0,1,1.79277-3.95638,7.66,7.66,0,0,1,4.81288-1.39237c.25621,0,.56237.00584.92153.01465.359.01186.70935.02946,1.04785.04716l1.1747.06477v-.34739a2.06123,2.06123,0,0,0-.87447-1.77211,4.1778,4.1778,0,0,0-2.49025-.63289,6.00143,6.00143,0,0,0-2.36682.41208,10.98366,10.98366,0,0,0-1.69862.88308l-1.71623-2.53158A10.19389,10.19389,0,0,1,239.00314,6.188a9.98117,9.98117,0,0,1,3.74742-.61816,7.037,7.037,0,0,1,4.98374,1.55138,5.10612,5.10612,0,0,1,1.65442,3.8916Zm-3.59128-5.2546V14.24215l-1.10984-.06181c-.29736-.02066-.60352-.03827-.92136-.05013-.318-.0088-.58285-.01464-.79487-.01464a4.81082,4.81082,0,0,0-2.302.55339,1.93507,1.93507,0,0,0-1.0333,1.85161,1.90361,1.90361,0,0,0,.68294,1.569,2.88284,2.88284,0,0,0,1.8605.55348,4.05825,4.05825,0,0,0,2.55512-.82425,2.42339,2.42339,0,0,0,1.06276-1.96355" style="fill:#6a463d"></path> <path d="M253.64389,27.43978V6.07408h3.61788l.0972,1.678a7.68017,7.68017,0,0,1,1.73078-1.45427,5.52924,5.52924,0,0,1,3.03214-.727,6.0738,6.0738,0,0,1,2.93782.68A6.19428,6.19428,0,0,1,267.141,8.07a8.27367,8.27367,0,0,1,1.23632,2.53158,9.91791,9.91791,0,0,1,.41505,2.8495,8.79763,8.79763,0,0,1-.98622,4.1949,7.34656,7.34656,0,0,1-2.74647,2.91131,7.84578,7.84578,0,0,1-4.11233,1.0598,7.65309,7.65309,0,0,1-2.049-.25316,11.62852,11.62852,0,0,1-1.53943-.53875v6.61463ZM257.359,13.57763v3.89466a3.72838,3.72838,0,0,0,1.42767.677,6.75025,6.75025,0,0,0,1.74857.23842,4.31711,4.31711,0,0,0,2.54038-.6947,4.19223,4.19223,0,0,0,1.4602-1.85161,6.37984,6.37984,0,0,0,.47685-2.455,6.25648,6.25648,0,0,0-.39744-2.24608,3.82763,3.82763,0,0,0-1.22159-1.69269,3.293,3.293,0,0,0-2.09605-.65059,3.43067,3.43067,0,0,0-2.89074,1.37772,5.46069,5.46069,0,0,0-1.04785,3.4029" style="fill:#6a463d"></path> <polygon points="282.767 6.075 286.514 6.075 286.514 21.112 282.767 21.112 282.767 15.127 276.161 15.127 276.161 21.112 272.413 21.112 272.413 6.075 276.161 6.075 276.161 11.933 282.767 11.933 282.767 6.075" style="fill:#6a463d"></polygon> <polygon points="290.835 6.075 294.424 6.075 294.424 15.952 301.633 6.075 304.936 6.075 304.936 21.112 301.344 21.112 301.344 11.012 294.011 21.112 290.835 21.112 290.835 6.075" style="fill:#6a463d"></polygon> </svg> 