<?xml version="1.0" encoding="UTF-8"?> <svg xmlns="http://www.w3.org/2000/svg" width="159.037" height="17.437" viewBox="0 0 159.037 17.437"> <g id="DL_letters" data-name="DL letters" transform="translate(0.028 0.007)"> <g id="Слой_1" data-name="Слой 1" transform="translate(-0.027 -0.007)"> <path id="Path_37" data-name="Path 37" d="M1.426,17.959A1.468,1.468,0,0,1,.27,17.61a1.722,1.722,0,0,1-.29-1.119V2.562A1.791,1.791,0,0,1,.27,1.43a1.437,1.437,0,0,1,1.156-.362H5.931a8.56,8.56,0,0,1,3.59.674,6.476,6.476,0,0,1,2.387,1.808,7.093,7.093,0,0,1,1.326,2.665,12.386,12.386,0,0,1,.408,3.216,14,14,0,0,1-.362,3.2,7.394,7.394,0,0,1-1.23,2.724,6.2,6.2,0,0,1-2.3,1.89,7.948,7.948,0,0,1-3.553.711ZM9.86,9.429a10.22,10.22,0,0,0-.194-2.047,4.166,4.166,0,0,0-.686-1.626A3.4,3.4,0,0,0,7.643,4.671a4.965,4.965,0,0,0-2.121-.4H3.643V14.731H5.594a4.813,4.813,0,0,0,2.084-.4A3.272,3.272,0,0,0,8.992,13.24a4.458,4.458,0,0,0,.674-1.676A11.045,11.045,0,0,0,9.86,9.429Z" transform="translate(0.027 -0.801)" fill="#08376d"></path> <path id="Path_38" data-name="Path 38" d="M72.511,14.39H66.992l-.94,3.061a.674.674,0,0,1-.212.349.753.753,0,0,1-.47.108H62.559c-.177,0-.285-.047-.325-.143a.527.527,0,0,1-.012-.34L67.233,2.319a2.751,2.751,0,0,1,.278-.664,1.316,1.316,0,0,1,.362-.4,1.282,1.282,0,0,1,.48-.2A2.923,2.923,0,0,1,68.993,1h1.447a5.659,5.659,0,0,1,.7.037,1.166,1.166,0,0,1,.492.18A1.215,1.215,0,0,1,72,1.625a3.708,3.708,0,0,1,.3.7l5.012,15.107a.529.529,0,0,1,0,.315c-.032.113-.138.167-.315.167H74.15a1.447,1.447,0,0,1-.445-.059.418.418,0,0,1-.246-.325Zm-4.65-2.953h3.782l-.915-3.083L69.837,4.91h-.145l-.915,3.445Z" transform="translate(-46.889 -0.75)" fill="#08376d"></path> <path id="Path_39" data-name="Path 39" d="M134.629,17.572a3.627,3.627,0,0,1-1.37-1.014,3.55,3.55,0,0,1-.7-1.422,6.722,6.722,0,0,1-.194-1.614V1.571a.492.492,0,0,1,.155-.4.672.672,0,0,1,.423-.108H135.5a.773.773,0,0,1,.47.1.563.563,0,0,1,.108.411V13.256a1.415,1.415,0,0,0,.445,1.23,1.99,1.99,0,0,0,1.166.312h6.122a.558.558,0,0,1,.359.086c.064.054.1.2.1.421v2.145c0,.337-.153.492-.458.492h-6.975A5.413,5.413,0,0,1,134.629,17.572Z" transform="translate(-99.79 -0.797)" fill="#08376d"></path> <path id="Path_40" data-name="Path 40" d="M191.263,17.571a3.637,3.637,0,0,1-1.363-1.014,3.582,3.582,0,0,1-.7-1.422,6.848,6.848,0,0,1-.192-1.614V1.571a.492.492,0,0,1,.133-.4.669.669,0,0,1,.421-.108h2.554a.768.768,0,0,1,.47.1.551.551,0,0,1,.108.411V13.255a1.415,1.415,0,0,0,.448,1.23,1.983,1.983,0,0,0,1.169.312h6.119a.561.561,0,0,1,.362.086c.064.054.1.2.1.421v2.145c0,.337-.153.492-.458.492h-6.963A5.413,5.413,0,0,1,191.263,17.571Z" transform="translate(-142.496 -0.797)" fill="#08376d"></path> <path id="Path_41" data-name="Path 41" d="M249.878,14.39H244.35l-.937,3.061a.691.691,0,0,1-.207.349.738.738,0,0,1-.47.108h-2.815c-.177,0-.285-.047-.325-.143a.541.541,0,0,1,0-.34l5-15.107a2.752,2.752,0,0,1,.278-.664,1.316,1.316,0,0,1,.362-.4,1.294,1.294,0,0,1,.492-.2A2.915,2.915,0,0,1,246.36,1h1.447a5.619,5.619,0,0,1,.7.037,1.179,1.179,0,0,1,.507.18,1.211,1.211,0,0,1,.372.411,3.556,3.556,0,0,1,.3.7L254.7,17.431a.529.529,0,0,1,0,.315c-.032.113-.138.167-.312.167h-2.869a1.447,1.447,0,0,1-.445-.059.423.423,0,0,1-.246-.325Zm-4.65-2.953h3.8l-.93-3.083L247.2,4.91h-.148l-.915,3.445Z" transform="translate(-180.618 -0.751)" fill="#08376d"></path> <path id="Path_42" data-name="Path 42" d="M306.446,4.886a5.213,5.213,0,0,1,.349-1.9,4.273,4.273,0,0,1,1.048-1.553A4.95,4.95,0,0,1,309.627.381,7.6,7.6,0,0,1,312.181,0q.674,0,1.41.071a14.041,14.041,0,0,1,1.447.219,13.085,13.085,0,0,1,1.373.349,7.825,7.825,0,0,1,1.181.47c.192.1.3.187.325.276a1.014,1.014,0,0,1-.084.492l-.64,1.813c-.079.224-.16.352-.246.384a.738.738,0,0,1-.408-.025q-1.132-.337-2.254-.554a11.055,11.055,0,0,0-2.109-.217,2.249,2.249,0,0,0-1.493.386,1.213,1.213,0,0,0-.423.937,1.166,1.166,0,0,0,.145.578,1.673,1.673,0,0,0,.47.517,4.943,4.943,0,0,0,.861.519q.544.266,1.338.578,1.23.492,2.264.984a7.945,7.945,0,0,1,1.771,1.119,4.659,4.659,0,0,1,1.156,1.476,4.5,4.5,0,0,1,.423,2.025,5.007,5.007,0,0,1-.458,2.214,4.362,4.362,0,0,1-1.279,1.567,5.622,5.622,0,0,1-1.988.94,9.977,9.977,0,0,1-2.566.312,16.135,16.135,0,0,1-1.614-.084,14.88,14.88,0,0,1-1.673-.266,12.572,12.572,0,0,1-1.626-.47,8.192,8.192,0,0,1-1.476-.7.477.477,0,0,1-.229-.266.866.866,0,0,1,.084-.458l.819-1.927c.081-.194.17-.305.266-.337a.6.6,0,0,1,.411.071c.32.128.674.261,1.058.4s.785.246,1.193.359a12.2,12.2,0,0,0,1.255.266,7.357,7.357,0,0,0,1.265.108,4.652,4.652,0,0,0,1.252-.143,2.645,2.645,0,0,0,.814-.386,1.209,1.209,0,0,0,.433-.531,1.678,1.678,0,0,0,.121-.637,1.552,1.552,0,0,0-.133-.652,1.8,1.8,0,0,0-.433-.566,3.443,3.443,0,0,0-.819-.529c-.344-.17-.775-.349-1.289-.544q-1.277-.48-2.313-.984a9,9,0,0,1-1.784-1.122,4.466,4.466,0,0,1-1.144-1.373,3.762,3.762,0,0,1-.389-1.774Z" transform="translate(-230.535 0.007)" fill="#08376d"></path> <path id="Path_43" data-name="Path 43" d="M398.891,17.571a3.647,3.647,0,0,1-1.361-1.014,3.55,3.55,0,0,1-.7-1.422,6.847,6.847,0,0,1-.192-1.614V1.571a.492.492,0,0,1,.133-.4.664.664,0,0,1,.421-.108h2.554a.768.768,0,0,1,.47.1.563.563,0,0,1,.108.411V13.255a1.415,1.415,0,0,0,.445,1.23,1.99,1.99,0,0,0,1.169.312h6.122a.561.561,0,0,1,.362.086c.064.054.1.2.1.421v2.145c0,.337-.153.492-.458.492H401.1A5.433,5.433,0,0,1,398.891,17.571Z" transform="translate(-299.04 -0.797)" fill="#08376d"></path> <path id="Path_44" data-name="Path 44" d="M466.232,8.745a13.954,13.954,0,0,1-.445,3.691,7.263,7.263,0,0,1-1.388,2.748,5.989,5.989,0,0,1-2.36,1.722,8.781,8.781,0,0,1-3.376.59,6.692,6.692,0,0,1-5.553-2.266A10,10,0,0,1,451.3,8.817a12.042,12.042,0,0,1,.517-3.651A7.778,7.778,0,0,1,453.29,2.42,6.471,6.471,0,0,1,455.627.7a7.689,7.689,0,0,1,3.115-.6,8.333,8.333,0,0,1,3.29.6,6.077,6.077,0,0,1,2.337,1.722,7.59,7.59,0,0,1,1.4,2.724,12.815,12.815,0,0,1,.465,3.6Zm-3.831.071a13.357,13.357,0,0,0-.157-2.072,5.331,5.331,0,0,0-.566-1.722,3.236,3.236,0,0,0-1.1-1.206,3.3,3.3,0,0,0-1.806-.445,3.011,3.011,0,0,0-1.6.421,3.577,3.577,0,0,0-1.144,1.144,5.329,5.329,0,0,0-.674,1.688,9.282,9.282,0,0,0-.217,2.05,13.086,13.086,0,0,0,.18,2.288,5.279,5.279,0,0,0,.6,1.722,2.91,2.91,0,0,0,1.122,1.11,3.617,3.617,0,0,0,1.759.384,3.166,3.166,0,0,0,1.735-.445,3.269,3.269,0,0,0,1.107-1.181,5.582,5.582,0,0,0,.591-1.722,11.168,11.168,0,0,0,.182-2.013Z" transform="translate(-340.251 -0.068)" fill="#08376d"></path> <path id="Path_45" data-name="Path 45" d="M530.81,14.245a6.921,6.921,0,0,0,2.05-.276c.593-.185,1.149-.374,1.663-.566a.6.6,0,0,1,.492-.062.739.739,0,0,1,.253.34l.819,1.735a.777.777,0,0,1,.12.507.506.506,0,0,1-.266.29,8.2,8.2,0,0,1-2.733,1.07,14.926,14.926,0,0,1-2.832.278,8.939,8.939,0,0,1-3.41-.59,6.026,6.026,0,0,1-2.362-1.7,7.181,7.181,0,0,1-1.373-2.706,13.417,13.417,0,0,1-.445-3.6,10.829,10.829,0,0,1,.566-3.592,8.344,8.344,0,0,1,1.58-2.763A6.857,6.857,0,0,1,527.378.826,7.858,7.858,0,0,1,530.547.2a14.186,14.186,0,0,1,2.409.2,7.382,7.382,0,0,1,2.313.832.627.627,0,0,1,.315.288,1,1,0,0,1-.121.556l-.738,1.661a.762.762,0,0,1-.246.411.645.645,0,0,1-.47-.049,12.3,12.3,0,0,0-1.614-.47,8.205,8.205,0,0,0-1.663-.155,3.543,3.543,0,0,0-1.747.421,3.819,3.819,0,0,0-1.277,1.156,5.392,5.392,0,0,0-.8,1.74,8.491,8.491,0,0,0-.266,2.182,10.409,10.409,0,0,0,.2,2.143,4.459,4.459,0,0,0,.7,1.663,3.36,3.36,0,0,0,1.289,1.085A4.532,4.532,0,0,0,530.81,14.245Z" transform="translate(-394.152 -0.148)" fill="#08376d"></path> <path id="Path_46" data-name="Path 46" d="M596.425,7.282l5.615,10.144a.492.492,0,0,1,.1.435c-.049.113-.16.167-.337.167H599a3.259,3.259,0,0,1-.738-.059c-.153-.039-.31-.207-.47-.492l-3.878-7.207-2.554,3.058v4.2q0,.335-.1.421a.785.785,0,0,1-.458.084h-2.524a.657.657,0,0,1-.423-.108.492.492,0,0,1-.133-.4V1.667a.492.492,0,0,1,.133-.4.657.657,0,0,1,.423-.108h2.529a.785.785,0,0,1,.458.084q.1.086.1.421V8.126l.1.049L593.726,5.3l3.012-3.755a1.083,1.083,0,0,1,.433-.312,2.4,2.4,0,0,1,.711-.071h3.11a.33.33,0,0,1,.3.13c.057.089.03.2-.084.327Z" transform="translate(-443.115 -0.871)" fill="#08376d"></path> </g> </g> </svg> 