<?xml version="1.0" encoding="UTF-8"?> <svg xmlns="http://www.w3.org/2000/svg" width="256" height="80.758" viewBox="0 0 256 80.758"> <path id="Logo" d="M63.654,80.656a1.509,1.509,0,0,1,.017-2.828l-1.29-7.559a1.492,1.492,0,0,1-1.474-1.657L38.458,62.027A1.51,1.51,0,0,1,35.7,60.819l-5.41-3.237a1.5,1.5,0,0,1-2.291-.081L23.3,60.008A3.366,3.366,0,0,1,19.035,64.5L12.674,78.02a1.519,1.519,0,1,1-1.809.028L4.64,65.818A3.371,3.371,0,1,1,5.377,60l11.9-13.495a3.366,3.366,0,0,1,3-5.649l6.271-24.269c-.032-.011-.065-.019-.1-.032a3.368,3.368,0,1,1,3.836-5.247l9.387-6.3a3.368,3.368,0,1,1,4.593,1.3l15.7,34.387a1.514,1.514,0,1,1,.689,2.948l.243,7.7a3.365,3.365,0,0,1,2.969,4.571,3.393,3.393,0,0,1-.168.365l8.289,5.313a3.368,3.368,0,1,1,1.465,5.192,3.429,3.429,0,0,1-.425-.2L65.259,78.163a1.514,1.514,0,0,1-1.606,2.493ZM61.4,58l1.111,9.255a1.507,1.507,0,0,1,.424,2.919l1.29,7.559a1.5,1.5,0,0,1,.516.1c.018.007.032.017.049.025L72.556,66.27a3.369,3.369,0,0,1-1.041-3.84,3.434,3.434,0,0,1,.168-.365l-8.289-5.314A3.376,3.376,0,0,1,61.4,58ZM6.735,62.712a3.344,3.344,0,0,1-1.594,2.851l6.226,12.231a1.5,1.5,0,0,1,.8-.011l6.362-13.527a3.365,3.365,0,0,1-1.638-2.364Zm31.886-1.5a1.527,1.527,0,0,1,0,.278l22.448,6.585a1.5,1.5,0,0,1,.886-.751l-1.11-9.252a3.362,3.362,0,0,1-3.273-2.188ZM5.8,60.373a3.377,3.377,0,0,1,.891,1.779l10.153-.821A3.356,3.356,0,0,1,19.829,58L19.524,47.54a3.326,3.326,0,0,1-1.825-.662Zm31.862-.446a1.505,1.505,0,0,1,.809.742l18.948-5.328a3.345,3.345,0,0,1,1.213-3.274L40.083,24.17a1.51,1.51,0,0,1-1.971-1.947c.018-.046.044-.086.065-.129l-8.062-6.378a3.38,3.38,0,0,1-2.061,1.042l1.317,38.3a1.477,1.477,0,0,1,.345.084,1.515,1.515,0,0,1,.871,1.958l0,0,5.4,3.233a1.521,1.521,0,0,1,1.134-.511A1.5,1.5,0,0,1,37.66,59.927ZM20.818,41c.033.011.065.02.1.032a3.367,3.367,0,0,1-.83,6.49l.306,10.456a3.353,3.353,0,0,1,2.642,1.535L27.731,57a1.5,1.5,0,0,1,1.078-1.915L27.492,16.776a3.312,3.312,0,0,1-.4-.043ZM59.1,51.754a3.387,3.387,0,0,1,1.237-.4l-.243-7.7a1.5,1.5,0,0,1-.31-.082,1.516,1.516,0,0,1-.871-1.958,1.535,1.535,0,0,1,.134-.264L41.051,24.609ZM40.012,21.336c.02.007.039.008.058.016a1.508,1.508,0,0,1,.72,2.247L59.43,40.944c.008-.005.014-.013.022-.019L43.751,6.537a3.356,3.356,0,0,1-1.392.19ZM30.6,11.775a3.353,3.353,0,0,1-.137,3.5l8.054,6.371a1.518,1.518,0,0,1,.939-.391L41.8,6.636a3.381,3.381,0,0,1-.4-.123,3.347,3.347,0,0,1-1.419-1.041ZM183.7,41.3h-7.74v2.361l-2.612.677V39.214H174.7c1.568-1.451,1.664-5.2,1.664-8.572V27.585h8.417V39.214h1.528v4.451l-2.612.677Zm-4.74-10.855c0,3.754-.136,7.3-1.316,8.823h4.238V29.656h-2.922Zm-81.054,8.92c2.109,0,2.438-2.012,2.458-8.2v-3.58h8.417V41.3h-2.9V29.675h-2.941v.7c0,6.56-.155,11.2-5.031,11.2ZM85.735,34.454c0-1.683.406-7.159,5.94-7.159s5.979,5.476,5.979,7.159c0,1.722-.445,7.121-5.979,7.121S85.735,36.177,85.735,34.454Zm3,0c0,1.2.116,5.186,2.941,5.186,2.883,0,2.98-3.986,2.98-5.186,0-1.238-.1-5.224-2.98-5.224C88.851,29.23,88.734,33.216,88.734,34.454Zm164.15,6.85-2.728-5.2h-.135l-2.67,5.2h-3.038l4.16-7.256-3.58-6.463h3.077l2.128,4.451h.135l2.128-4.451h2.98l-3.522,6.463L256,41.3Zm-13.3,0V27.585h2.9V41.3Zm-11.049,0V27.585h2.9v5.554h2.089c1.374,0,4.8.116,4.8,4.122,0,3.792-3.909,4.044-4.818,4.044Zm2.844-1.993h1.625c2.032,0,2.419-1.1,2.419-2.128,0-.909-.368-2.012-2.361-2.012h-1.684ZM222.757,41.3V35.229h-4.9V41.3h-2.9V27.585h2.9v5.553h4.9V27.585h2.9V41.3Zm-13.577,0V35.229h-4.9V41.3h-2.9V27.585h2.9v5.553h4.9V27.585h2.9V41.3Zm-12.506,0-1.064-3.1h-4.47l-1.006,3.1h-2.864l4.837-13.719h2.612L199.556,41.3Zm-4.9-5.108h3.192l-1.587-5.011h-.1Zm-28.4,5.108-2.728-5.2h-.136l-2.67,5.2h-3.038l4.16-7.256-3.58-6.463h3.077l2.128,4.451h.136l2.128-4.451h2.98l-3.522,6.463L166.5,41.3Zm-13.506,0V31.939H149.8L144.98,41.3h-2.9V27.585h2.9v9.366h.077l4.818-9.366h2.9V41.3Zm-26.271,0V27.585h2.883v11.63h3.483V27.585h2.883v11.63h3.464V27.585H139.2V41.3Zm-11.945,0V27.585h2.9v5.554h2.225c1.374,0,4.8.116,4.8,4.122,0,3.792-3.909,4.044-4.818,4.044Zm2.845-1.993h1.664c2.032,0,2.419-1.1,2.419-2.128,0-.909-.368-2.012-2.361-2.012H114.5ZM74.422,41.3V27.585h8.959v2.09H77.324v3.483H79.8c1.238,0,4.8.1,4.8,4.1,0,3.792-3.909,4.044-4.818,4.044Zm2.844-1.993h1.916c2.032,0,2.419-1.1,2.419-2.128,0-.909-.368-2.012-2.361-2.012H77.266Zm94.88-18.586h-9.23V7.006h2.9V18.635h4.509V7.006h2.9V18.635h1.529v4.45l-2.612.677Zm-39.932,0h-9.23V7.006h2.9V18.635H130.4V7.006h2.9V18.635h1.529v4.45l-2.612.677ZM109.1,13.875c0-1.683.406-7.16,5.94-7.16s5.979,5.476,5.979,7.16c0,1.722-.445,7.121-5.979,7.121S109.1,15.6,109.1,13.875Zm3,0c0,1.2.116,5.186,2.941,5.186,2.883,0,2.98-3.986,2.98-5.186,0-1.238-.1-5.224-2.98-5.224C112.212,8.651,112.1,12.637,112.1,13.875Zm-14.422,0c0-4.915,2.477-7.16,5.979-7.16a8.367,8.367,0,0,1,3.812.813V10.1a5.55,5.55,0,0,0-3.483-1.277c-2.187,0-3.309,1.993-3.309,5.089,0,3.445,1.1,4.973,3.405,4.973a6.269,6.269,0,0,0,3.425-1.258V20.2A8.733,8.733,0,0,1,103.5,21C99.416,21,97.674,18.171,97.674,13.875Zm-11.119,0c0-4.915,2.477-7.16,5.979-7.16a8.367,8.367,0,0,1,3.812.813V10.1a5.549,5.549,0,0,0-3.483-1.277c-2.186,0-3.309,1.993-3.309,5.089,0,3.445,1.1,4.973,3.406,4.973a6.269,6.269,0,0,0,3.425-1.258V20.2A8.735,8.735,0,0,1,92.379,21C88.3,21,86.555,18.171,86.555,13.875Zm110.083,6.85V15.113h-.252c-2.322,0-2.825,3.27-4.528,5.612h-3.193c2.109-2.883,2.418-5.34,4.624-6l.02-.155c-2.5-.329-3.464-1.838-3.464-3.657,0-2.941,2.361-3.909,5.031-3.909h4.663V20.725Zm-3.889-9.675c0,1.8,1.548,2.032,2.4,2.032h1.528V9.038h-1.335C194.471,9.038,192.748,9.077,192.748,11.05Zm-8.489,9.675V11.36h-.077l-4.818,9.365h-2.9V7.006h2.9v9.365h.077l4.818-9.365h2.9V20.725Zm-26.052,0-1.064-3.1h-4.47l-1.006,3.1H148.8l4.837-13.719h2.612l4.837,13.719Zm-4.9-5.109h3.193L154.919,10.6h-.1Zm-8.984,5.109V11.36h-.077l-4.818,9.365h-2.9V7.006h2.9v9.365h.078l4.818-9.365h2.9V20.725Zm-60.89,0-1.064-3.1H77.9l-1.006,3.1H74.035L78.872,7.006h2.612l4.837,13.719Zm-4.9-5.109h3.193L80.149,10.6h-.1Z" fill="#8194a1"></path> </svg> 