<?xml version="1.0" encoding="UTF-8"?> <svg xmlns="http://www.w3.org/2000/svg" width="133" height="18" viewBox="0 0 133 18" fill="none"> <g clip-path="url(#clip0_198_424)"> <path d="M8.25084 18H0C2.19329 10.5802 4.36768 6.77441 8.56224 0.105057H16.5018L13.2844 7.03871L19.9786 6.73281C21.3825 4.0797 22.2534 2.63433 23.9223 0.105057H32.2252L23.5591 18H15.2044L18.1104 10.3016C12.3744 10.389 10.2389 12.1124 8.25084 18Z" fill="#1C1B1F"></path> <path d="M62.8933 18L61.4922 0.105057H68.9647L69.9507 10.4036L80.5366 0.105057H90.0851L71.0922 18H62.8933Z" fill="#1C1B1F"></path> <path d="M108.663 14.6351L114.007 0.105057H123.919V0.461881C119.456 2.39923 119.612 5.96801 116.862 12.5957C116.498 13.4711 116.55 14.0233 117.692 14.0233H133L129.368 18H112.035C109.441 17.898 107.988 16.3175 108.663 14.6351Z" fill="#1C1B1F"></path> <path fill-rule="evenodd" clip-rule="evenodd" d="M26.3613 18H34.6641C36.6799 15.1465 39.1855 14.4713 45.6134 14.5842L44.5237 18H51.3735L58.1194 0.105058C45.0945 -0.761601 38.5079 3.60538 26.3613 18ZM47.0664 10.9645H40.7355C44.6447 6.66232 46.6645 5.27044 49.9724 4.48962C48.6695 7.04372 48.0417 8.46106 47.0664 10.9645Z" fill="#1C1B1F"></path> <path fill-rule="evenodd" clip-rule="evenodd" d="M77.6309 18H86.1413C88.055 14.8929 90.7774 14.4135 97.0383 14.6351L95.6894 18H102.643C105.646 11.076 107.161 7.15851 109.544 0.105052C96.347 -0.23881 94.4686 1.59151 79.4071 16.2697C78.8345 16.8277 78.2429 17.4043 77.6309 18ZM98.6474 10.9644H92.2642C96.5925 6.42415 98.7435 4.63432 101.449 4.54049C100.36 7.01232 99.7459 8.4154 98.6474 10.9644Z" fill="#1C1B1F"></path> </g> <defs> <clipPath id="clip0_198_424"> <rect width="133" height="18" fill="white"></rect> </clipPath> </defs> </svg> 