<svg width="71" height="21" viewBox="0 0 71 21" fill="none" xmlns="http://www.w3.org/2000/svg">
<g clip-path="url(#clip0_754_1135)">
<g clip-path="url(#clip1_754_1135)">
<g clip-path="url(#clip2_754_1135)">
<mask id="mask0_754_1135" style="mask-type:luminance" maskUnits="userSpaceOnUse" x="0" y="0" width="71" height="21">
<path d="M70.1017 0.03125H0.135742V20.3113H70.1017V0.03125Z" fill="white"/>
</mask>
<g mask="url(#mask0_754_1135)">
<mask id="mask1_754_1135" style="mask-type:luminance" maskUnits="userSpaceOnUse" x="17" y="6" width="54" height="9">
<path d="M17.6143 6.69531H70.064V14.5201H17.6143V6.69531Z" fill="white"/>
</mask>
<g mask="url(#mask1_754_1135)">
<path fill-rule="evenodd" clip-rule="evenodd" d="M68.719 9.31076C68.719 10.078 68.1165 10.5753 67.1698 10.5753H65.2335V8.03544H67.1593C68.1382 8.03544 68.719 8.47853 68.719 9.28912V9.31076ZM70.0636 9.23477V9.2135C70.0636 8.55414 69.8379 7.99187 69.4398 7.58173C68.9559 7.10612 68.2132 6.82488 67.2668 6.82488H64.5772C64.2008 6.82488 63.9104 7.11695 63.9104 7.49505V13.7852C63.9104 14.1526 64.2008 14.4445 64.5772 14.4445C64.9431 14.4445 65.2335 14.1526 65.2335 13.7852V11.7532H66.9009L68.7298 14.0987C68.8803 14.3041 69.0739 14.4445 69.3753 14.4445C69.6979 14.4445 70.0098 14.196 70.0098 13.8283C70.0098 13.6231 69.9241 13.4827 69.7949 13.3206L68.3532 11.494C69.3645 11.1805 70.0636 10.4453 70.0636 9.23477ZM60.9208 10.6293C60.9208 12.0992 59.8772 13.2879 58.3819 13.2879C56.8867 13.2879 55.8216 12.0776 55.8216 10.6076V10.5862C55.8216 9.11624 56.8652 7.91627 58.3606 7.91627C59.8557 7.91627 60.9208 9.1379 60.9208 10.6076V10.6293ZM58.3819 6.69531C56.0692 6.69531 54.4342 8.47853 54.4342 10.6076V10.6293C54.4342 12.7584 56.0475 14.5201 58.3606 14.5201C60.6731 14.5201 62.3085 12.7369 62.3085 10.6076V10.5862C62.3085 8.4571 60.6948 6.69531 58.3819 6.69531ZM53.2298 6.82488H48.2273C47.8832 6.82488 47.6144 7.10612 47.6144 7.44111C47.6144 7.77607 47.8832 8.05693 48.2273 8.05693H50.0562V13.7852C50.0562 14.1526 50.3573 14.4445 50.7232 14.4445C51.089 14.4445 51.3902 14.1526 51.3902 13.7852V8.05693H53.2298C53.5632 8.05693 53.8321 7.77607 53.8321 7.44111C53.8321 7.10612 53.5632 6.82488 53.2298 6.82488ZM44.1188 10.1539L46.464 7.88398C46.6146 7.74355 46.7006 7.59213 46.7006 7.38694C46.7006 7.06256 46.4532 6.77071 46.0872 6.77071C45.8507 6.77071 45.6893 6.85737 45.5388 7.01945L41.9673 10.6293V7.43028C41.9673 7.06256 41.6765 6.77071 41.311 6.77071C40.9344 6.77071 40.644 7.06256 40.644 7.43028V13.7852C40.644 14.1526 40.9344 14.4445 41.311 14.4445C41.6765 14.4445 41.9673 14.1526 41.9673 13.7852V12.2182L43.1936 11.0293L45.614 14.131C45.754 14.3147 45.9154 14.4445 46.1735 14.4445C46.5501 14.4445 46.8406 14.1635 46.8406 13.7963C46.8406 13.5906 46.7651 13.4608 46.6574 13.3206L44.1188 10.1539ZM34.1798 11.3859L35.5026 8.32731L36.8259 11.3859H34.1798ZM36.3418 7.25715C36.1911 6.92216 35.9332 6.71697 35.5566 6.71697H35.4921C35.1155 6.71697 34.8466 6.92216 34.6959 7.25715L31.8991 13.5258C31.8449 13.6339 31.8129 13.7311 31.8129 13.8283C31.8129 14.1743 32.0818 14.4445 32.4259 14.4445C32.7058 14.4445 32.9315 14.2931 33.0392 14.0231L33.674 12.564H37.3317L37.9449 13.9798C38.063 14.2608 38.2779 14.4445 38.5903 14.4445C38.9451 14.4445 39.2141 14.1635 39.2141 13.8069C39.2141 13.7204 39.1926 13.6231 39.139 13.5258L36.3418 7.25715ZM31.082 6.82488H26.693C26.3166 6.82488 26.0258 7.11695 26.0258 7.49505V13.7852C26.0258 14.1526 26.3166 14.4445 26.693 14.4445C27.0586 14.4445 27.3492 14.1526 27.3492 13.7852V11.3103H30.5979C30.9315 11.3103 31.2004 11.0399 31.2004 10.7051C31.2004 10.3699 30.9315 10.0997 30.5979 10.0997H27.3492V8.03544H31.082C31.4154 8.03544 31.6843 7.76506 31.6843 7.43028C31.6843 7.09507 31.4154 6.82488 31.082 6.82488ZM23.0363 10.6293C23.0363 12.11 22.0036 13.18 20.4222 13.18H18.9376V8.03544H20.4222C22.0036 8.03544 23.0363 9.12688 23.0363 10.6076V10.6293ZM20.4222 6.82488H18.2813C17.9048 6.82488 17.6143 7.11695 17.6143 7.49505V13.7204C17.6143 14.0987 17.9048 14.3903 18.2813 14.3903H20.4222C22.7889 14.3903 24.4239 12.7369 24.4239 10.6076V10.5862C24.4239 8.4571 22.7889 6.82488 20.4222 6.82488Z" fill="black"/>
</g>
<mask id="mask2_754_1135" style="mask-type:luminance" maskUnits="userSpaceOnUse" x="0" y="5" width="10" height="16">
<path d="M0.208008 5.65625H9.96064V20.1029H0.208008V5.65625Z" fill="white"/>
</mask>
<g mask="url(#mask2_754_1135)">
<g opacity="0.199997">
<path fill-rule="evenodd" clip-rule="evenodd" d="M9.4695 8.94015L2.04985 5.82824C1.0802 5.42147 0.208008 5.75633 0.208008 6.62048V19.1388C0.208008 20.003 1.0802 20.3377 2.04985 19.9312L9.4695 16.8194C9.74723 16.7029 9.96064 16.2791 9.96064 15.8667V9.8927C9.96064 9.48028 9.74723 9.05664 9.4695 8.94015Z" fill="#007AE1"/>
</g>
</g>
<mask id="mask3_754_1135" style="mask-type:luminance" maskUnits="userSpaceOnUse" x="0" y="0" width="71" height="21">
<path d="M0.135742 0.03125H70.1017V20.3113H0.135742V0.03125Z" fill="white"/>
</mask>
<g mask="url(#mask3_754_1135)">
<mask id="mask4_754_1135" style="mask-type:luminance" maskUnits="userSpaceOnUse" x="3" y="4" width="10" height="15">
<path d="M3.14453 4.46875H12.8972V18.9156H3.14453V4.46875Z" fill="white"/>
</mask>
<g mask="url(#mask4_754_1135)">
<g opacity="0.650986">
<path fill-rule="evenodd" clip-rule="evenodd" d="M12.406 7.75249L4.98636 4.64074C4.01671 4.23397 3.14453 4.56883 3.14453 5.43298V17.9514C3.14453 18.8156 4.01671 19.1502 4.98636 18.7436L12.406 15.632C12.6838 15.5153 12.8972 15.0916 12.8972 14.6791V8.70526C12.8972 8.29276 12.6838 7.86895 12.406 7.75249Z" fill="#007AE1"/>
</g>
</g>
</g>
<mask id="mask5_754_1135" style="mask-type:luminance" maskUnits="userSpaceOnUse" x="6" y="3" width="10" height="15">
<path d="M6.01074 3.32031H15.7634V17.767H6.01074V3.32031Z" fill="white"/>
</mask>
<g mask="url(#mask5_754_1135)">
<g opacity="0.800003">
<path fill-rule="evenodd" clip-rule="evenodd" d="M15.2722 6.60404L7.85255 3.49228C6.88292 3.0855 6.01074 3.42051 6.01074 4.28452V16.8028C6.01074 17.6669 6.88292 18.0018 7.85255 17.5952L15.2722 14.4833C15.55 14.3666 15.7634 13.943 15.7634 13.5307V7.55676C15.7634 7.14434 15.55 6.72051 15.2722 6.60404Z" fill="#007AE1"/>
</g>
</g>
</g>
</g>
</g>
</g>
<defs>
<clipPath id="clip0_754_1135">
<rect width="70" height="20.28" fill="white" transform="translate(0.119141 0.03125)"/>
</clipPath>
<clipPath id="clip1_754_1135">
<rect width="70" height="20.28" fill="white" transform="translate(0.119141 0.03125)"/>
</clipPath>
<clipPath id="clip2_754_1135">
<rect width="69.966" height="20.28" fill="white" transform="translate(0.135742 0.03125)"/>
</clipPath>
</defs>
</svg>
