<svg width="71" height="21" viewBox="0 0 71 21" fill="none" xmlns="http://www.w3.org/2000/svg">
<g clip-path="url(#clip0_754_1120)">
<g clip-path="url(#clip1_754_1120)">
<g clip-path="url(#clip2_754_1120)">
<path d="M29.3392 10.7005C29.3392 13.6181 27.0567 15.7681 24.2554 15.7681C21.4543 15.7681 19.1719 13.6181 19.1719 10.7005C19.1719 7.76223 21.4543 5.63281 24.2554 5.63281C27.0567 5.63281 29.3392 7.76223 29.3392 10.7005ZM27.1137 10.7005C27.1137 8.87721 25.7908 7.62972 24.2554 7.62972C22.7202 7.62972 21.3972 8.87721 21.3972 10.7005C21.3972 12.5054 22.7202 13.7712 24.2554 13.7712C25.7908 13.7712 27.1137 12.5031 27.1137 10.7005Z" fill="#EA4335"/>
<path d="M40.3058 10.7005C40.3058 13.6181 38.0233 15.7681 35.2223 15.7681C32.4212 15.7681 30.1387 13.6181 30.1387 10.7005C30.1387 7.76452 32.4212 5.63281 35.2223 5.63281C38.0233 5.63281 40.3058 7.76223 40.3058 10.7005ZM38.0805 10.7005C38.0805 8.87721 36.7577 7.62972 35.2223 7.62972C33.6869 7.62972 32.364 8.87721 32.364 10.7005C32.364 12.5054 33.6869 13.7712 35.2223 13.7712C36.7577 13.7712 38.0805 12.5031 38.0805 10.7005Z" fill="#FBBC05"/>
<path d="M50.8165 5.93898V15.037C50.8165 18.7794 48.6094 20.308 46.0002 20.308C43.5441 20.308 42.0657 18.6652 41.5082 17.3218L43.4457 16.5152C43.7907 17.34 44.6362 18.3133 45.9978 18.3133C47.668 18.3133 48.7031 17.2829 48.7031 15.3431V14.6143H48.6254C48.1274 15.2289 47.1677 15.7658 45.9568 15.7658C43.4228 15.7658 41.1016 13.5587 41.1016 10.7187C41.1016 7.8582 43.4228 5.63281 45.9568 5.63281C47.1653 5.63281 48.1249 6.16975 48.6254 6.76606H48.7031V5.94127H50.8165V5.93898ZM48.8607 10.7187C48.8607 8.93431 47.6703 7.62972 46.1555 7.62972C44.6201 7.62972 43.3338 8.93431 43.3338 10.7187C43.3338 12.4849 44.6201 13.7712 46.1555 13.7712C47.6703 13.7712 48.8607 12.4849 48.8607 10.7187Z" fill="#4285F4"/>
<path d="M54.3005 0.609375V15.4604H52.1299V0.609375H54.3005Z" fill="#34A853"/>
<path d="M62.7583 12.3706L64.4855 13.5222C63.928 14.347 62.5847 15.7681 60.2632 15.7681C57.3845 15.7681 55.2344 13.5427 55.2344 10.7005C55.2344 7.68683 57.4027 5.63281 60.0142 5.63281C62.6441 5.63281 63.9302 7.72567 64.3506 8.85664L64.5814 9.43241L57.8071 12.2381C58.3259 13.2548 59.1324 13.7735 60.2632 13.7735C61.3965 13.7735 62.1825 13.216 62.7583 12.3706ZM57.4417 10.5474L61.97 8.667C61.7209 8.03413 60.9716 7.59316 60.0896 7.59316C58.9586 7.59316 57.3845 8.5916 57.4417 10.5474Z" fill="#EA4335"/>
<path d="M10.9554 9.38514V7.23517H18.2004C18.2712 7.60987 18.3078 8.0531 18.3078 8.53291C18.3078 10.146 17.8668 12.1406 16.4457 13.5617C15.0634 15.0011 13.2973 15.7688 10.9576 15.7688C6.62112 15.7688 2.97461 12.2365 2.97461 7.90003C2.97461 3.56352 6.62112 0.03125 10.9576 0.03125C13.3567 0.03125 15.0657 0.972579 16.3497 2.19951L14.8326 3.71659C13.9119 2.85295 12.6644 2.18123 10.9554 2.18123C7.78864 2.18123 5.31194 4.73333 5.31194 7.90003C5.31194 11.0667 7.78864 13.6188 10.9554 13.6188C13.0094 13.6188 14.1792 12.794 14.9286 12.0446C15.5363 11.4369 15.9362 10.5687 16.0938 9.38286L10.9554 9.38514Z" fill="#4285F4"/>
</g>
</g>
</g>
<defs>
<clipPath id="clip0_754_1120">
<rect width="70" height="20.28" fill="white" transform="translate(0.119141 0.03125)"/>
</clipPath>
<clipPath id="clip1_754_1120">
<rect width="70" height="20.28" fill="white" transform="translate(0.119141 0.03125)"/>
</clipPath>
<clipPath id="clip2_754_1120">
<rect width="69.966" height="20.28" fill="white" transform="translate(0.135742 0.03125)"/>
</clipPath>
</defs>
</svg>
