<svg width="71" height="21" viewBox="0 0 71 21" fill="none" xmlns="http://www.w3.org/2000/svg">
<g clip-path="url(#clip0_754_1098)">
<g clip-path="url(#clip1_754_1098)">
<g clip-path="url(#clip2_754_1098)">
<path d="M36.8069 16.2099H35.7872L35.7821 5.16589H29.8168V6.24795C29.8168 9.61794 29.6943 13.5188 28.5217 16.2099H27.7312V20.3091H29.5156V17.819H35.0222V20.3091H36.8069V16.2099ZM44.9829 15.4889C44.4731 15.8405 43.5812 16.3439 42.4589 16.3439C40.8787 16.3439 40.0626 14.8343 40.0626 11.9671H45.4161V10.8863C45.4161 6.5861 44.0144 5.00128 41.8726 5.00128C39.1451 5.00128 37.9979 7.96869 37.9979 12.043C37.9979 15.9413 39.6294 18.0289 42.281 18.0289C43.5556 18.0289 44.6262 17.6263 45.4417 16.9972L44.9829 15.4889ZM24.5456 5.16206V10.5724H21.5883V5.16206H19.5996V17.8381H21.5883V12.1202H24.5456V17.8381H26.5081V5.16271H24.5456V5.16206ZM52.8465 17.8349H55.0132L51.3675 11.1198L54.5545 5.1595H52.5403L49.4555 11.019V5.16078H47.4675V17.8362H49.4555V11.5237L52.8465 17.8362V17.8349ZM62.3509 17.0406L61.8916 15.5821C61.4329 15.984 60.6941 16.3617 59.7249 16.3617C58.1189 16.3617 57.354 14.5511 57.354 11.3821C57.354 8.18816 58.3736 6.60334 59.8013 6.60334C60.6174 6.60334 61.3818 7.0308 61.9178 7.48379L62.1984 5.6227C61.6371 5.27052 60.9741 4.96875 59.8269 4.96875C56.8188 4.96875 55.2639 7.50931 55.2639 11.4828C55.2639 15.8086 56.9208 17.997 59.6738 17.997C60.8466 17.997 61.6624 17.6193 62.3509 17.0406ZM33.8216 16.2756H30.4057C31.4763 13.5845 31.6038 9.68685 31.6038 7.0206V6.79409H33.8216V16.2756ZM41.8777 6.64353C43.0249 6.64353 43.3822 8.22771 43.3822 10.3906H40.0932C40.2208 8.12754 40.6546 6.64353 41.8777 6.64353Z" fill="black"/>
<path d="M15.056 11.0835V17.7986H17.0192V0.03125H14.0875C11.2063 0.03125 8.78437 1.8783 8.78437 5.65088C8.78437 8.34201 9.85497 9.80051 11.4615 10.605L8.04492 17.7986H10.3143L13.4246 11.0829L15.056 11.0835ZM15.0599 9.51594H14.0148C12.3068 9.51594 10.9045 8.58572 10.9045 5.69361C10.9045 2.70071 12.4344 1.66967 14.0148 1.66967H15.0599V9.51594Z" fill="#FF0000"/>
</g>
</g>
</g>
<defs>
<clipPath id="clip0_754_1098">
<rect width="70" height="20.28" fill="white" transform="translate(0.119141 0.03125)"/>
</clipPath>
<clipPath id="clip1_754_1098">
<rect width="70" height="20.28" fill="white" transform="translate(0.119141 0.03125)"/>
</clipPath>
<clipPath id="clip2_754_1098">
<rect width="69.966" height="20.28" fill="white" transform="translate(0.135742 0.03125)"/>
</clipPath>
</defs>
</svg>
